# AST/ASF file generated using VICON BodyLanguage
# -----------------------------------------------
:version 1.10
:name VICON
:units
  mass 1.0
  length 0.45
  angle deg
:documentation
   .ast/.asf automatically generated from VICON data using
   VICON BodyBuilder and BodyLanguage model FoxedUp or BRILLIANT.MOD
:root
   order TX TY TZ RX RY RZ
   axis XYZ
   position 0 0 0  
   orientation 0 0 0 
:bonedata
  begin
     id 1 
     name lhipjoint
     direction 0.627457 -0.725269 0.283342 
     length 2.53237 
     axis 0 0 0  XYZ
  end
  begin
     id 2 
     name lfemur
     direction 0.34202 -0.939693 0  
     length 7.32496  
     axis 0 0 20  XYZ
    dof rx ry rz
    limits (-160.0 20.0)
           (-70.0 70.0)
           (-60.0 70.0)
  end
  begin
     id 3 
     name ltibia
     direction 0.34202 -0.939693 0   
     length 7.69674   
     axis 0 0 20   XYZ
    dof rx
    limits (-10.0 170.0)
  end
  begin
     id 4 
     name lfoot
     direction 0.127289 -0.349722 0.928166   
     length 1.8612   
     axis -90 7.62852e-016 20   XYZ
    dof rx rz
    limits (-45.0 90.0)
           (-70.0 20.0)
  end
  begin
     id 5 
     name ltoes
     direction 1.53561e-011 -4.21864e-011 1   
     length 0.925608   
     axis -90 7.62852e-016 20   XYZ
    dof rx
    limits (-90.0 20.0)
  end
  begin
     id 6 
     name rhipjoint
     direction -0.609094 -0.738725 0.288599   
     length 2.48624  
     axis 0 0 0  XYZ 
  end
  begin
     id 7 
     name rfemur
     direction -0.34202 -0.939693 0   
     length 7.44259   
     axis 0 0 -20   XYZ
    dof rx ry rz
    limits (-160.0 20.0)
           (-70.0 70.0)
           (-70.0 60.0)
  end
  begin
     id 8 
     name rtibia
     direction -0.34202 -0.939693 0   
     length 7.7781   
     axis 0 0 -20   XYZ
    dof rx
    limits (-10.0 170.0)
 end
 begin
     id 9 
     name rfoot
     direction -0.107015 -0.294021 0.949789   
     length 2.14741  
     axis -90 -7.62852e-016 -20   XYZ
    dof rx rz
    limits (-45.0 90.0)
           (-20.0 70.0)
  end
  begin
     id 10 
     name rtoes
     direction -1.53497e-011 -4.21924e-011 1   
     length 1.0706   
     axis -90 -7.62852e-016 -20   XYZ
    dof rx
    limits (-90.0 20.0)
  end
  begin
     id 11 
     name lowerback
     direction -0.0142066 0.998112 -0.0597545   
     length 1.86627   
     axis 0 0 0   XYZ
    dof rx ry rz
    limits (-20.0 45.0)
           (-30.0 30.0)
           (-30.0 30.0)
  end
  begin
     id 12 
     name upperback
     direction 0.00547294 0.999744 0.0219437   
     length 1.86272   
     axis 0 0 0   XYZ
    dof rx ry rz
    limits (-20.0 45.0)
           (-30.0 30.0)
           (-30.0 30.0)
  end
  begin
     id 13 
     name thorax
     direction 0.0116162 0.998704 0.0495538   
     length 1.8703   
     axis 0 0 0   XYZ
    dof rx ry rz
    limits (-20.0 45.0)
           (-30.0 30.0)
           (-30.0 30.0)
  end
  begin
     id 14 
     name lowerneck
     direction -0.0106574 0.998739 0.0490586   
     length 1.8074   
     axis 0 0 0   XYZ
    dof rx ry rz
    limits (-20.0 45.0)
           (-30.0 30.0)
           (-30.0 30.0)
  end
  begin
     id 15 
     name upperneck
     direction 0.030527 0.976587 -0.212944   
     length 1.80681   
     axis 0 0 0   XYZ
    dof rx ry rz
    limits (-20.0 45.0)
           (-30.0 30.0)
           (-30.0 30.0)
  end
  begin
     id 16
     name head
     direction 0.00869225 0.997035 -0.0764531  
     length 1.8313  
     axis 0 0 0   XYZ
    dof rx ry rz
    limits (-20.0 45.0)
           (-30.0 30.0)
           (-30.0 30.0)
  end
  begin
     id 17 
     name lclavicle
     direction 0.915958 0.399447 0.0382386  
     length 3.78965  
     axis 0 0 0   XYZ
    dof ry rz
    limits (-20.0 10.0)
           (0.0 20.0)
  end
  begin
     id 18 
     name lhumerus
     direction 1 -4.48967e-011 3.19303e-027   
     length 4.78095   
     axis -180 -30 -90   XYZ
    dof rx ry rz
    limits (-60.0 90.0)
           (-90.0 90.0)
           (-90.0 90.0)
  end
  begin
     id 19
     name lradius
     direction 1 -4.48967e-011 -3.77974e-027   
     length 3.58615   
     axis -180 -30 -90   XYZ
    dof rx
    limits (-10.0 170.0)
  end
  begin
     id 20
     name lwrist
     direction 1 -4.48927e-011 1.2807e-027   
     length 1.79307   
     axis 1.91374e-015 90 90   XYZ
    dof ry
    limits (-180.0 0.0)
 end
  begin
     id 21 
     name lhand
     direction 1 -4.49036e-011 2.5614e-027   
     length 0.659812   
     axis -1.63439e-015 90 90   XYZ
    dof rx rz
    limits (-90.0 90.0)
           (-45.0 45.0)
  end
  begin
     id 22 
     name lfingers
     direction 1 -4.49052e-011 5.1228e-027   
     length 0.531957   
     axis -3.26879e-015 90 90   XYZ
    dof rx
    limits (0.0 90.0)
  end
  begin
     id 23
     name lthumb
     direction 0.707107 -6.35012e-011 0.707107   
     length 0.763787   
     axis -90 45 2.85299e-015   XYZ
    dof rx rz
    limits (-45.0 45.0)
           (-45.0 45.0)
  end
  begin
     id 24 
     name rclavicle
     direction -0.895351 0.435135 0.0948887   
     length 3.70497  
     axis 0 0 0   XYZ 
    dof ry rz
    limits (-10.0 20.0)
           (-20.0 0.0)
  end
  begin
     id 25 
     name rhumerus
     direction -1 -4.48971e-011 2.38946e-027  
     length 4.48913   
     axis -180 30 90   XYZ
    dof rx ry rz
    limits (-90.0 60.0)
           (-90.0 90.0)
           (-90.0 90.0)
  end
  begin
     id 26 
     name rradius
     direction -1 -4.4895e-011 4.38668e-027   
     length 3.7051   
     axis -180 30 90   XYZ
    dof rx
    limits (-10.0 170.0)
  end
  begin
     id 27 
     name rwrist
     direction -1 -4.49007e-011 1.2807e-027   
     length 1.85255   
     axis 1.91374e-015 -90 -90   XYZ
    dof ry
    limits (-180.0 0.0)
  end
  begin
     id 28
     name rhand
     direction -1 -4.48851e-011 2.5614e-027   
     length 0.449136   
     axis -1.63439e-015 -90 -90   XYZ
    dof rx rz
    limits (-90.0 90.0)
           (-45.0 45.0)
  end
  begin
     id 29
     name rfingers
     direction -1 -4.49128e-011 5.1228e-027   
     length 0.362105   
     axis -3.26879e-015 -90 -90   XYZ
    dof rx
    limits (0.0 90.0)
  end
  begin
     id 30
     name rthumb
     direction -0.707107 -6.34851e-011 0.707107   
     length 0.519912   
     axis -90 -45 -2.85299e-015   XYZ
    dof rx rz
    limits (-45.0 45.0)
           (-45.0 45.0)
  end
:hierarchy
  begin
    root lhipjoint rhipjoint lowerback
    lhipjoint lfemur
    lfemur ltibia
    ltibia lfoot
    lfoot ltoes
    rhipjoint rfemur
    rfemur rtibia
    rtibia rfoot
    rfoot rtoes
    lowerback upperback
    upperback thorax
    thorax lowerneck lclavicle rclavicle
    lowerneck upperneck
    upperneck head
    lclavicle lhumerus
    lhumerus lradius
    lradius lwrist
    lwrist lhand lthumb
    lhand lfingers
    rclavicle rhumerus
    rhumerus rradius
    rradius rwrist
    rwrist rhand rthumb
    rhand rfingers
  end

#!OML:ASF I:\Actors\actors\Patient Classification 2\Patient 1\Session 1\actor1.ASF
:FULLY-SPECIFIED
:DEGREES
35
root -0.590058 18.1945 5.56844 4.67361 -3.82726 -2.21402
lowerback -2.41379 1.79385 1.03326
upperback -4.11108 2.38536 -0.111924
thorax -2.82315 1.16019 -0.694369
lowerneck -9.60274 -2.91834 -2.00546
upperneck 23.0175 -4.89299 4.96074
head 8.94767 -1.96793 1.50691
rclavicle 6.70898e-015 6.36111e-015
rhumerus -51.3458 -5.23726 -86.4646
rradius 41.8672
rwrist 14.2823
rhand -6.18279 -39.9887
rfingers 7.12502
rthumb 19.6566 -69.0149
lclavicle 6.70898e-015 6.36111e-015
lhumerus -44.3816 0.237373 90.2736
lradius 36.9784
lwrist -3.44063
lhand -6.55751 -23.3202
lfingers 7.12502
lthumb 19.2964 5.74245
rfemur 6.21685 3.38087 15.6111
rtibia -8.04084
rfoot -11.1961 -11.6052
rtoes 3.41824
lfemur 9.48553 -9.63799 -12.6691
ltibia -9.67301
lfoot -10.0882 20.9968
ltoes -8.72199
36
root -0.590773 18.1942 5.57109 4.68489 -3.82695 -2.23625
lowerback -2.46753 1.78712 1.04013
upperback -4.09711 2.37584 -0.0979426
thorax -2.77901 1.15582 -0.681697
lowerneck -9.60918 -2.9016 -1.97946
upperneck 23.0196 -4.86972 4.94072
head 8.94748 -1.95667 1.49814
rclavicle -5.14355e-015 1.39149e-015
rhumerus -51.3419 -5.22693 -86.4663
rradius 41.8973
rwrist 14.2861
rhand -6.08112 -40.0458
rfingers 7.12502
rthumb 19.7544 -69.062
lclavicle -5.14355e-015 1.39149e-015
lhumerus -44.3443 0.239057 90.292
lradius 36.945
lwrist -3.40819
lhand -6.63755 -23.3096
lfingers 7.12502
lthumb 19.2194 5.76073
rfemur 6.21581 3.3808 15.6395
rtibia -8.03849
rfoot -11.2232 -11.6067
rtoes 3.25709
lfemur 9.49836 -9.63635 -12.6384
ltibia -9.69614
lfoot -10.1097 20.9897
ltoes -8.60762
37
root -0.59106 18.1941 5.57232 4.70378 -3.83195 -2.2358
lowerback -2.4932 1.79228 1.04179
upperback -4.08998 2.38215 -0.106209
thorax -2.75669 1.15898 -0.690038
lowerneck -9.64968 -2.90415 -1.92211
upperneck 23.0326 -4.87586 4.90336
head 8.95747 -1.95755 1.47457
rclavicle 6.36111e-015 7.95139e-015
rhumerus -51.32 -5.26597 -86.4672
rradius 41.925
rwrist 14.2852
rhand -5.01496 -40.5145
rfingers 7.12502
rthumb 20.779 -69.4219
lclavicle 6.36111e-015 7.95139e-015
lhumerus -44.2952 0.248831 90.2747
lradius 36.9144
lwrist -3.4752
lhand -6.67007 -23.3618
lfingers 7.12502
lthumb 19.1881 5.71164
rfemur 6.19494 3.38449 15.6359
rtibia -8.03406
rfoot -11.2314 -11.5977
rtoes 3.32985
lfemur 9.49118 -9.62945 -12.6335
ltibia -9.71202
lfoot -10.1318 20.982
ltoes -8.70127
38
root -0.591088 18.1946 5.57229 4.71635 -3.81912 -2.22463
lowerback -2.47429 1.79512 1.04923
upperback -4.0999 2.38593 -0.120952
thorax -2.77659 1.16024 -0.710177
lowerneck -9.68302 -2.92262 -1.91166
upperneck 23.0542 -4.90017 4.88356
head 8.97141 -1.96918 1.46304
rclavicle -2.49226e-014 1.07344e-014
rhumerus -51.32 -5.30876 -86.4679
rradius 41.953
rwrist 14.3229
rhand -2.9436 -41.3678
rfingers 7.12502
rthumb 22.7681 -70.0443
lclavicle -2.49226e-014 1.07344e-014
lhumerus -44.2936 0.244894 90.2633
lradius 36.925
lwrist -3.53896
lhand -6.65134 -23.3777
lfingers 7.12502
lthumb 19.2061 5.69398
rfemur 6.18584 3.37042 15.6201
rtibia -8.03332
rfoot -11.2199 -11.5893
rtoes 3.40287
lfemur 9.47427 -9.64033 -12.6474
ltibia -9.71582
lfoot -10.1237 20.9905
ltoes -8.94383
39
root -0.590986 18.1951 5.5728 4.71152 -3.80746 -2.22662
lowerback -2.43452 1.79128 1.07177
upperback -4.11887 2.38114 -0.130344
thorax -2.81737 1.15669 -0.734184
lowerneck -9.68424 -2.93554 -1.92463
upperneck 23.0783 -4.91732 4.88368
head 8.98098 -1.97796 1.46347
rclavicle -1.16786e-015 -1.74931e-014
rhumerus -51.3365 -5.32494 -86.4784
rradius 41.9625
rwrist 14.3622
rhand -1.8391 -41.8292
rfingers 7.12502
rthumb 23.8277 -70.3714
lclavicle -1.16786e-015 -1.74931e-014
lhumerus -44.3288 0.240329 90.2565
lradius 36.9449
lwrist -3.55803
lhand -6.61865 -23.3452
lfingers 7.12502
lthumb 19.2376 5.72329
rfemur 6.20163 3.35947 15.6226
rtibia -8.03659
rfoot -11.1981 -11.5893
rtoes 3.32228
lfemur 9.47626 -9.65137 -12.6509
ltibia -9.7092
lfoot -10.0788 21.014
ltoes -9.07565
40
root -0.591194 18.1949 5.57428 4.69902 -3.81816 -2.2326
lowerback -2.42323 1.78968 1.07991
upperback -4.11932 2.37905 -0.13332
thorax -2.82377 1.1553 -0.742184
lowerneck -9.66081 -2.927 -1.90038
upperneck 23.0626 -4.9099 4.88631
head 8.97035 -1.97281 1.46134
rclavicle 1.13556e-014 -7.15625e-015
rhumerus -51.3222 -5.31629 -86.5008
rradius 41.9817
rwrist 14.4081
rhand -3.40683 -41.0505
rfingers 7.12502
rthumb 22.3235 -69.7809
lclavicle 1.13556e-014 -7.15625e-015
lhumerus -44.3228 0.238825 90.2484
lradius 36.9256
lwrist -3.56025
lhand -6.5835 -23.3735
lfingers 7.12502
lthumb 19.2714 5.69161
rfemur 6.22241 3.37154 15.6286
rtibia -8.0443
rfoot -11.1994 -11.5733
rtoes 3.47816
lfemur 9.49344 -9.64156 -12.6508
ltibia -9.69427
lfoot -10.0431 21.015
ltoes -9.20859
41
root -0.591138 18.1948 5.57517 4.69588 -3.82952 -2.22314
lowerback -2.43616 1.7881 1.06841
upperback -4.11049 2.37675 -0.133459
thorax -2.80785 1.15462 -0.73527
lowerneck -9.61615 -2.90617 -1.85603
upperneck 23.009 -4.88173 4.86726
head 8.94076 -1.95938 1.45084
rclavicle -2.8625e-014 1.59028e-015
rhumerus -51.2878 -5.29694 -86.5148
rradius 42.0316
rwrist 14.5138
rhand -6.73115 -39.3475
rfingers 7.12502
rthumb 19.1294 -68.4267
lclavicle -2.8625e-014 1.59028e-015
lhumerus -44.3 0.240588 90.2508
lradius 36.9075
lwrist -3.55218
lhand -6.54915 -23.4304
lfingers 7.12502
lthumb 19.3044 5.63142
rfemur 6.22386 3.38232 15.6178
rtibia -8.04092
rfoot -11.2081 -11.5617
rtoes 3.57337
lfemur 9.49984 -9.63164 -12.6604
ltibia -9.68662
lfoot -10.0732 20.9979
ltoes -9.32657
42
root -0.591005 18.1949 5.57523 4.70505 -3.83697 -2.22289
lowerback -2.4381 1.78798 1.07339
upperback -4.11213 2.37657 -0.132135
thorax -2.80833 1.1544 -0.736661
lowerneck -9.57467 -2.89724 -1.81799
upperneck 22.9585 -4.86302 4.82216
head 8.91267 -1.95351 1.43149
rclavicle -2.21645e-014 1.27222e-014
rhumerus -51.2648 -5.29131 -86.5148
rradius 42.0647
rwrist 14.584
rhand -8.36443 -38.4952
rfingers 7.12502
rthumb 17.5582 -67.7223
lclavicle -2.21645e-014 1.27222e-014
lhumerus -44.2824 0.249494 90.2505
lradius 36.8985
lwrist -3.55358
lhand -6.48922 -23.4663
lfingers 7.12502
lthumb 19.362 5.5898
rfemur 6.20495 3.38896 15.6168
rtibia -8.02487
rfoot -11.2203 -11.5611
rtoes 3.48078
lfemur 9.49257 -9.62426 -12.6527
ltibia -9.68799
lfoot -10.1394 21.0009
ltoes -9.16607
43
root -0.591353 18.195 5.57521 4.72289 -3.84739 -2.23669
lowerback -2.43533 1.79195 1.08651
upperback -4.12057 2.3819 -0.132425
thorax -2.81799 1.15658 -0.744548
lowerneck -9.56507 -2.90438 -1.80912
upperneck 22.9393 -4.87361 4.82147
head 8.90443 -1.95831 1.42867
rclavicle -2.79789e-014 -7.15625e-015
rhumerus -51.254 -5.30651 -86.5134
rradius 42.0751
rwrist 14.577
rhand -8.24981 -38.4979
rfingers 7.12502
rthumb 17.6685 -67.7152
lclavicle -2.79789e-014 -7.15625e-015
lhumerus -44.249 0.26012 90.2378
lradius 36.8605
lwrist -3.58185
lhand -6.4569 -23.4778
lfingers 7.12502
lthumb 19.3931 5.57514
rfemur 6.1739 3.39906 15.6293
rtibia -8.00448
rfoot -11.2265 -11.5609
rtoes 3.50292
lfemur 9.47564 -9.61152 -12.632
ltibia -9.68912
lfoot -10.1554 21.008
ltoes -8.91826
44
root -0.591713 18.1951 5.57517 4.73174 -3.84276 -2.24608
lowerback -2.42909 1.79592 1.09306
upperback -4.13174 2.38723 -0.13666
thorax -2.83253 1.15884 -0.752999
lowerneck -9.582 -2.91768 -1.8355
upperneck 22.9666 -4.89866 4.86302
head 8.91978 -1.96733 1.44441
rclavicle 7.07673e-014 6.75868e-015
rhumerus -51.2677 -5.32006 -86.5169
rradius 42.1057
rwrist 14.5116
rhand -8.19793 -38.4833
rfingers 7.12502
rthumb 17.7184 -67.696
lclavicle 7.07673e-014 6.75868e-015
lhumerus -44.2455 0.252267 90.2292
lradius 36.8479
lwrist -3.61075
lhand -6.47284 -23.441
lfingers 7.12502
lthumb 19.3778 5.61345
rfemur 6.15275 3.3946 15.6386
rtibia -7.9772
rfoot -11.232 -11.5544
rtoes 3.59827
lfemur 9.46808 -9.61389 -12.6233
ltibia -9.69515
lfoot -10.0887 21.0208
ltoes -8.96384
45
root -0.591727 18.1952 5.57566 4.72751 -3.83538 -2.25398
lowerback -2.42256 1.79992 1.10247
upperback -4.13439 2.39256 -0.140152
thorax -2.8383 1.16112 -0.762112
lowerneck -9.58723 -2.92412 -1.8359
upperneck 22.9731 -4.90777 4.86233
head 8.92336 -1.9715 1.44321
rclavicle 3.45388e-014 -1.19271e-015
rhumerus -51.2758 -5.33941 -86.5097
rradius 42.1232
rwrist 14.4931
rhand -8.21424 -38.4851
rfingers 7.12502
rthumb 17.7027 -67.6992
lclavicle 3.45388e-014 -1.19271e-015
lhumerus -44.2501 0.247247 90.2264
lradius 36.8585
lwrist -3.61785
lhand -6.47488 -23.3912
lfingers 7.12502
lthumb 19.3758 5.66346
rfemur 6.15443 3.38846 15.6458
rtibia -7.95881
rfoot -11.2574 -11.5381
rtoes 3.63972
lfemur 9.47974 -9.62052 -12.6194
ltibia -9.70191
lfoot -10.0188 21.0303
ltoes -9.27825
